<?xml version="1.0" standalone="no"?>
<!DOCTYPE svg PUBLIC "-//W3C//DTD SVG 20010904//EN"
 "http://www.w3.org/TR/2001/REC-SVG-20010904/DTD/svg10.dtd">
<svg version="1.0" xmlns="http://www.w3.org/2000/svg"
 width="196.000000pt" height="196.000000pt" viewBox="0 0 196.000000 196.000000"
 preserveAspectRatio="xMidYMid meet">
<metadata>
Created by potrace 1.14, written by Peter Selinger 2001-2017
</metadata>
<g transform="translate(0.000000,196.000000) scale(0.100000,-0.100000)"
fill="#000000" stroke="none">
<path d="M1450 1665 c-87 -25 -154 -75 -230 -172 -6 -7 -20 -36 -32 -65 -22
-51 -23 -64 -26 -429 -2 -417 0 -436 63 -535 108 -169 323 -229 514 -142 65
29 146 116 184 195 l32 68 3 375 c2 402 0 430 -50 518 -34 61 -110 129 -181
163 -83 38 -191 48 -277 24z"/>
<path d="M285 1063 c-22 -7 -54 -20 -72 -28 -37 -18 -143 -112 -143 -128 0 -6
-6 -18 -13 -26 -49 -57 -70 -229 -39 -320 54 -162 196 -270 363 -277 151 -6
269 53 352 178 146 221 35 525 -219 601 -62 18 -176 19 -229 0z"/>
</g>
</svg>
